<svg xmlns="http://www.w3.org/2000/svg" viewBox="0 0 1600 1000" width="1600" height="1000" role="img" aria-labelledby="meltemi-v2-board-title">
  <title id="meltemi-v2-board-title">Sistema de identidad Meltemi versión 2</title>
  <defs>
    <linearGradient id="meltemi-v2-board-gradient" x1="38" y1="222" x2="219" y2="54" gradientUnits="userSpaceOnUse">
      <stop offset="0" stop-color="#3B82F6"/>
      <stop offset="1" stop-color="#22D3EE"/>
    </linearGradient>
    <g id="meltemi-v2-board-mark">
      <path d="M43 178C43 125 57 100 78 100C99 100 109 127 109 176C109 105 132 67 158 67C185 67 199 97 196 132C194 154 185 169 172 177C189 176 205 166 217 152C224 144 230 133 234 122" fill="none" stroke-width="25" stroke-linecap="round" stroke-linejoin="round"/>
      <path d="M45 199C87 211 145 215 202 189C195 204 177 216 151 220C106 226 67 215 45 199Z" stroke="none"/>
    </g>
    <g id="meltemi-v2-board-wordmark">
      <path d="M138 0H398V685C398 834 492 914 606 914C716 914 795 840 795 726V0H1049V702C1049 827 1126 914 1252 914C1359 914 1446 852 1446 714V0H1706V754C1706 1002 1552 1136 1351 1136C1194 1136 1054 1054 994 893C946 1052 851 1136 707 1136C574 1136 448 1064 390 905L382 1118H138Z"/>
      <path d="M632 -23C881 -23 1055 96 1109 277L870 326C835 231 749 181 635 181C468 181 355 287 348 486H1126V568C1126 960 888 1132 615 1132C295 1132 89 896 89 552C89 202 295 -23 632 -23ZM349 663C361 812 457 928 616 928C771 928 858 823 873 663Z" transform="translate(1788)"/>
      <path d="M398 1490H138V0H398Z" transform="translate(2943)"/>
      <path d="M655 1118H439V1384H179V1118H20V914H179V293C179 95 298 -15 512 -15C567 -15 629 -8 686 9L645 210C620 204 574 197 550 197C471 197 439 234 439 315V914H655Z" transform="translate(3423)"/>
      <path d="M632 -23C881 -23 1055 96 1109 277L870 326C835 231 749 181 635 181C468 181 355 287 348 486H1126V568C1126 960 888 1132 615 1132C295 1132 89 896 89 552C89 202 295 -23 632 -23ZM349 663C361 812 457 928 616 928C771 928 858 823 873 663Z" transform="translate(4090)"/>
      <path d="M138 0H398V685C398 834 492 914 606 914C716 914 795 840 795 726V0H1049V702C1049 827 1126 914 1252 914C1359 914 1446 852 1446 714V0H1706V754C1706 1002 1552 1136 1351 1136C1194 1136 1054 1054 994 893C946 1052 851 1136 707 1136C574 1136 448 1064 390 905L382 1118H138Z" transform="translate(5245)"/>
      <path d="M138 0H398V1118H138ZM268 1276C351 1276 420 1340 420 1419C420 1498 351 1561 268 1561C185 1561 117 1498 117 1419C117 1340 185 1276 268 1276Z" transform="translate(7033)"/>
    </g>
  </defs>

  <rect width="1600" height="1000" fill="#07111F"/>
  <text x="104" y="92" fill="#88A0B9" font-family="Inter, 'Segoe UI', sans-serif" font-size="20" font-weight="650" letter-spacing="4">MELTEMI / IDENTIDAD V2</text>
  <text x="1496" y="92" fill="#88A0B9" font-family="Inter, 'Segoe UI', sans-serif" font-size="20" font-weight="650" text-anchor="end">AGENTIC IDE</text>

  <g transform="translate(108 148) scale(1.28)">
    <use href="#meltemi-v2-board-mark" fill="url(#meltemi-v2-board-gradient)" stroke="url(#meltemi-v2-board-gradient)"/>
  </g>
  <g fill="#F7FBFF" transform="translate(445 404) scale(.1125 -.1125)">
    <use href="#meltemi-v2-board-wordmark"/>
  </g>
  <text x="452" y="486" fill="#8FA5BA" font-family="Inter, 'Segoe UI', sans-serif" font-size="24" font-weight="550" letter-spacing="7">THE WIND THAT WRITES</text>
  <line x1="104" y1="568" x2="1496" y2="568" stroke="#183149" stroke-width="2"/>

  <rect y="620" width="1600" height="380" fill="#F7FBFF"/>
  <text x="104" y="690" fill="#526579" font-family="Inter, 'Segoe UI', sans-serif" font-size="18" font-weight="650" letter-spacing="3">SÍMBOLO</text>
  <g transform="translate(94 708) scale(.82)">
    <use href="#meltemi-v2-board-mark" fill="#0B1830" stroke="#0B1830"/>
  </g>
  <text x="104" y="934" fill="#0B1830" font-family="Inter, 'Segoe UI', sans-serif" font-size="22" font-weight="700">m · velas · casco · ráfaga</text>
  <text x="104" y="968" fill="#526579" font-family="Inter, 'Segoe UI', sans-serif" font-size="18">Dos velas sobre un casco mínimo.</text>

  <line x1="430" y1="676" x2="430" y2="950" stroke="#DCE5ED" stroke-width="2"/>
  <text x="486" y="690" fill="#526579" font-family="Inter, 'Segoe UI', sans-serif" font-size="18" font-weight="650" letter-spacing="3">LOCKUP / CLARO</text>
  <g transform="translate(480 746)">
    <g transform="scale(.46)"><use href="#meltemi-v2-board-mark" fill="url(#meltemi-v2-board-gradient)" stroke="url(#meltemi-v2-board-gradient)"/></g>
    <g fill="#0B1830" transform="translate(132 96) scale(.043 -.043)"><use href="#meltemi-v2-board-wordmark"/></g>
  </g>
  <text x="486" y="934" fill="#0B1830" font-family="Inter, 'Segoe UI', sans-serif" font-size="22" font-weight="700">Compacto y reproducible</text>
  <text x="486" y="968" fill="#526579" font-family="Inter, 'Segoe UI', sans-serif" font-size="18">Contornos vectoriales; sin fuentes vivas.</text>

  <line x1="1080" y1="676" x2="1080" y2="950" stroke="#DCE5ED" stroke-width="2"/>
  <text x="1136" y="690" fill="#526579" font-family="Inter, 'Segoe UI', sans-serif" font-size="18" font-weight="650" letter-spacing="3">PALETA EGEA</text>
  <rect x="1136" y="742" width="92" height="92" rx="22" fill="#07111F"/>
  <rect x="1248" y="742" width="92" height="92" rx="22" fill="#2563EB"/>
  <rect x="1360" y="742" width="92" height="92" rx="22" fill="#22D3EE"/>
  <text x="1136" y="874" fill="#0B1830" font-family="Inter, 'Segoe UI', sans-serif" font-size="17" font-weight="700">Night</text>
  <text x="1248" y="874" fill="#0B1830" font-family="Inter, 'Segoe UI', sans-serif" font-size="17" font-weight="700">Aegean</text>
  <text x="1360" y="874" fill="#0B1830" font-family="Inter, 'Segoe UI', sans-serif" font-size="17" font-weight="700">Cyan</text>
  <text x="1136" y="910" fill="#526579" font-family="ui-monospace, 'Cascadia Mono', monospace" font-size="16">#07111F</text>
  <text x="1248" y="910" fill="#526579" font-family="ui-monospace, 'Cascadia Mono', monospace" font-size="16">#2563EB</text>
  <text x="1360" y="910" fill="#526579" font-family="ui-monospace, 'Cascadia Mono', monospace" font-size="16">#22D3EE</text>
</svg>
